<?xml version="1.0" encoding="UTF-8"?>
<svg xmlns="http://www.w3.org/2000/svg" xmlns:xlink="http://www.w3.org/1999/xlink" width="24px" height="24px" viewBox="0 0 24 24" version="1.1">
<g id="surface1">
<path style=" stroke:none;fill-rule:nonzero;fill:rgb(100%,100%,100%);fill-opacity:1;" d="M 16.363281 6.417969 C 14.476562 6.417969 13.671875 7.316406 12.359375 7.316406 C 11.011719 7.316406 9.980469 6.421875 8.34375 6.421875 C 6.742188 6.421875 5.03125 7.402344 3.945312 9.066406 C 2.421875 11.417969 2.679688 15.84375 5.152344 19.617188 C 6.03125 20.96875 7.214844 22.480469 8.761719 22.5 L 8.789062 22.5 C 10.132812 22.5 10.53125 21.617188 12.382812 21.609375 L 12.414062 21.609375 C 14.234375 21.609375 14.601562 22.496094 15.9375 22.496094 L 15.964844 22.496094 C 17.511719 22.476562 18.753906 20.804688 19.640625 19.453125 C 20.277344 18.488281 20.511719 18 21 16.902344 C 17.429688 15.546875 16.855469 10.484375 20.386719 8.546875 C 19.308594 7.195312 17.792969 6.414062 16.363281 6.414062 Z M 16.363281 6.417969 "/>
<path style=" stroke:none;fill-rule:nonzero;fill:rgb(100%,100%,100%);fill-opacity:1;" d="M 15.945312 1.5 C 14.820312 1.574219 13.507812 2.292969 12.742188 3.230469 C 12.042969 4.078125 11.46875 5.335938 11.695312 6.554688 L 11.785156 6.554688 C 12.984375 6.554688 14.207031 5.832031 14.925781 4.90625 C 15.617188 4.027344 16.140625 2.78125 15.945312 1.5 Z M 15.945312 1.5 "/>
</g>
</svg>
